<?xml version="1.0" standalone="no"?>
<!DOCTYPE svg PUBLIC "-//W3C//DTD SVG 20010904//EN"
 "http://www.w3.org/TR/2001/REC-SVG-20010904/DTD/svg10.dtd">
<svg version="1.0" xmlns="http://www.w3.org/2000/svg"
 width="91.000000pt" height="44.000000pt" viewBox="0 0 91.000000 44.000000"
 preserveAspectRatio="xMidYMid meet">

<g transform="translate(0.000000,44.000000) scale(0.100000,-0.100000)"
fill="#000000" stroke="none">
<path d="M450 320 c-21 -17 -34 -19 -81 -14 -45 4 -57 3 -62 -9 -3 -8 -19 -18
-36 -22 -22 -5 -28 -10 -21 -18 6 -7 18 -23 29 -36 21 -28 56 -32 151 -17 46
7 53 6 43 -6 -7 -8 -8 -19 -3 -28 7 -11 11 -11 24 -1 12 11 14 17 5 27 -9 11
-7 14 12 14 13 0 46 6 74 13 46 12 50 16 56 50 3 20 2 42 -2 49 -7 10 -9 10
-9 1 0 -7 -7 -10 -17 -6 -9 4 -14 2 -11 -3 10 -15 -80 -3 -93 12 -15 19 -29
17 -59 -6z m100 -61 c0 -4 -7 -12 -16 -19 -8 -8 -14 -9 -13 -4 4 20 -2 24 -21
14 -18 -9 -19 -7 -18 24 l1 34 33 -21 c19 -12 34 -25 34 -28z m-141 5 c9 -8
-55 -2 -74 6 -13 6 -5 7 25 3 25 -3 47 -7 49 -9z m208 -6 c-3 -8 -6 -5 -6 6
-1 11 2 17 5 13 3 -3 4 -12 1 -19z"/>
<path d="M108 193 c7 -3 16 -2 19 1 4 3 -2 6 -13 5 -11 0 -14 -3 -6 -6z"/>
<path d="M155 180 c11 -5 29 -9 40 -9 l20 0 -20 9 c-11 5 -29 9 -40 9 l-20 0
20 -9z"/>
<path d="M515 119 c-16 -5 -52 -8 -80 -5 l-50 5 40 -13 c37 -12 79 -6 140 18
20 9 -21 4 -50 -5z"/>
<path d="M240 40 c0 -39 6 -39 12 0 3 16 1 30 -4 30 -4 0 -8 -13 -8 -30z"/>
<path d="M280 40 c0 -17 4 -30 8 -30 5 0 8 13 8 30 0 17 -3 30 -8 30 -4 0 -8
-13 -8 -30z"/>
<path d="M328 42 c-3 -19 0 -29 9 -29 15 0 18 43 4 51 -5 3 -11 -7 -13 -22z"/>
<path d="M370 39 c0 -22 5 -29 20 -29 15 0 20 7 20 28 0 21 -5 28 -20 29 -16
1 -20 -4 -20 -28z"/>
<path d="M460 40 c0 -17 4 -30 9 -30 5 0 7 9 4 20 -3 12 0 20 6 20 7 0 9 5 6
10 -12 20 -25 9 -25 -20z"/>
<path d="M512 40 c0 -19 2 -27 5 -17 2 9 2 25 0 35 -3 9 -5 1 -5 -18z"/>
<path d="M540 38 c0 -32 0 -32 16 -10 15 22 12 42 -7 42 -5 0 -9 -15 -9 -32z"/>
<path d="M590 40 c0 -17 5 -30 10 -30 6 0 10 13 10 30 0 17 -4 30 -10 30 -5 0
-10 -13 -10 -30z"/>
<path d="M640 40 c0 -17 3 -30 8 -30 4 0 7 13 7 30 0 17 -3 30 -7 30 -5 0 -8
-13 -8 -30z"/>
<path d="M680 40 c0 -17 5 -30 10 -30 6 0 10 13 10 30 0 17 -4 30 -10 30 -5 0
-10 -13 -10 -30z"/>
</g>
</svg>
