<?xml version="1.0" standalone="no"?>
<!DOCTYPE svg PUBLIC "-//W3C//DTD SVG 20010904//EN"
 "http://www.w3.org/TR/2001/REC-SVG-20010904/DTD/svg10.dtd">
<svg version="1.0" xmlns="http://www.w3.org/2000/svg"
 width="500.000000pt" height="500.000000pt" viewBox="0 0 500.000000 500.000000"
 preserveAspectRatio="xMidYMid meet">

<g transform="translate(0.000000,500.000000) scale(0.100000,-0.100000)"
fill="#000000" stroke="none">
<path d="M2022 3314 c-2 -137 -10 -203 -22 -185 -7 12 -114 -10 -152 -30 -22
-12 -23 -41 -3 -80 9 -16 13 -34 10 -39 -3 -6 -1 -10 5 -10 6 0 8 -5 5 -10 -4
-6 7 -34 24 -63 30 -52 33 -55 113 -81 46 -15 108 -30 138 -33 65 -6 293 21
404 48 91 22 127 24 144 7 8 -8 18 -9 34 -1 13 6 66 16 118 22 52 6 147 24
210 40 152 40 171 46 207 64 28 15 31 21 36 84 2 37 8 77 12 88 4 12 1 11 -8
-5 -8 -14 -17 -42 -21 -62 -8 -46 -26 -60 -26 -21 0 36 39 153 50 153 5 0 11
-10 13 -22 2 -13 5 -4 6 20 0 23 -3 42 -9 42 -5 0 -12 11 -16 25 -4 17 -10 23
-18 16 -61 -49 -171 -72 -254 -53 -24 6 -57 6 -79 2 -42 -10 -83 10 -185 87
-31 24 -63 43 -71 43 -8 0 -59 -37 -113 -83 -114 -95 -76 -88 -344 -61 -85 9
-165 20 -177 24 -21 9 -23 17 -26 107 -3 91 -3 88 -5 -33z m758 -146 c92 -76
181 -128 201 -117 10 5 24 9 31 8 7 0 -6 -9 -29 -19 -24 -11 -43 -23 -43 -28
0 -14 -148 -144 -160 -140 -5 1 15 30 45 63 30 33 55 64 55 68 0 4 -8 10 -17
14 -25 8 -153 105 -153 115 0 16 -25 7 -52 -19 -37 -35 -36 -25 2 22 20 26 30
49 30 73 0 32 1 34 18 20 9 -8 42 -35 72 -60z m430 -100 c-18 -86 -35 -118
-62 -118 -8 0 -6 5 5 11 9 6 15 14 12 19 -6 10 23 146 37 174 21 40 25 -3 8
-86z m-978 32 c195 -33 203 -34 200 -45 -7 -27 -318 17 -351 50 -14 13 -13 15
7 15 12 0 77 -9 144 -20z m518 -22 l49 -42 -47 -48 c-50 -51 -56 -50 -67 13
-6 34 2 119 11 119 3 0 27 -19 54 -42z m380 5 c0 -38 -24 -133 -34 -130 -19 7
4 137 24 137 6 0 10 -3 10 -7z m-341 -90 c-14 -16 -39 -44 -56 -65 l-31 -36
-52 31 c-29 18 -60 43 -69 57 -18 26 -17 26 58 -25 61 -40 70 -38 128 26 19
21 38 39 41 39 3 0 -5 -12 -19 -27z m466 -3 c-3 -5 -13 -10 -21 -10 -8 0 -12
5 -9 10 3 6 13 10 21 10 8 0 12 -4 9 -10z"/>
<path d="M990 2861 c8 -5 117 -30 241 -55 278 -56 492 -103 714 -155 271 -63
664 -138 585 -111 -14 4 -106 25 -205 45 -99 21 -265 57 -370 81 -326 76 -454
104 -655 144 -107 22 -213 44 -235 50 -51 12 -96 13 -75 1z"/>
<path d="M4148 2823 c6 -2 18 -2 25 0 6 3 1 5 -13 5 -14 0 -19 -2 -12 -5z"/>
<path d="M4055 2810 l-30 -8 35 0 c19 0 44 3 55 8 18 8 18 9 -5 8 -14 0 -38
-4 -55 -8z"/>
<path d="M2653 2791 c-29 -8 -53 -19 -53 -25 1 -16 79 -136 89 -136 10 0 101
124 101 137 0 4 -19 15 -42 23 -38 14 -50 14 -95 1z m65 -41 c-2 -16 -1 -31 4
-32 4 -2 -1 -18 -13 -37 -11 -18 -21 -32 -23 -30 -7 8 18 129 27 129 5 0 7
-13 5 -30z"/>
<path d="M3988 2793 c6 -2 18 -2 25 0 6 3 1 5 -13 5 -14 0 -19 -2 -12 -5z"/>
<path d="M3923 2783 c9 -2 25 -2 35 0 9 3 1 5 -18 5 -19 0 -27 -2 -17 -5z"/>
<path d="M3643 2737 c-84 -17 -151 -32 -149 -35 3 -2 76 10 163 26 206 40 203
40 168 40 -16 0 -99 -14 -182 -31z"/>
<path d="M3458 2693 c7 -3 16 -2 19 1 4 3 -2 6 -13 5 -11 0 -14 -3 -6 -6z"/>
<path d="M3375 2680 c-14 -7 -8 -8 20 -3 22 3 42 7 44 9 9 8 -45 2 -64 -6z"/>
<path d="M3285 2660 c-14 -7 -8 -8 20 -3 22 3 42 7 44 9 9 8 -45 2 -64 -6z"/>
<path d="M3135 2629 c-44 -10 -115 -25 -158 -35 -43 -9 -76 -18 -73 -21 2 -2
48 5 103 17 172 36 259 58 233 58 -14 0 -61 -8 -105 -19z"/>
<path d="M3025 2545 c-60 -12 -174 -39 -253 -60 l-144 -38 -91 21 c-51 12
-108 24 -127 27 -19 3 -64 13 -100 21 -53 12 -71 13 -95 3 l-30 -12 50 -8 c28
-5 120 -29 205 -54 85 -25 163 -45 173 -45 10 0 89 21 175 46 86 25 182 52
212 60 241 65 255 87 25 39z"/>
<path d="M2715 2535 c-31 -10 -34 -13 -15 -13 14 0 41 6 60 13 46 18 9 17 -45
0z"/>
<path d="M1750 2301 c0 -12 7 -21 15 -21 12 0 15 -18 15 -100 0 -82 3 -100 15
-100 12 0 15 18 15 100 0 95 1 100 21 100 14 0 19 5 17 18 -2 13 -15 18 -51
20 -42 3 -47 1 -47 -17z"/>
<path d="M1930 2200 l0 -120 35 0 c28 0 35 4 35 20 0 13 -7 20 -20 20 -16 0
-20 7 -20 30 0 20 5 30 15 30 8 0 15 9 15 20 0 11 -7 20 -15 20 -10 0 -15 10
-15 30 0 23 4 30 20 30 13 0 20 7 20 20 0 16 -7 20 -35 20 l-35 0 0 -120z"/>
<path d="M2115 2308 c-4 -11 -35 -208 -35 -223 0 -3 7 -5 15 -5 8 0 17 11 21
25 3 14 12 25 20 25 7 0 16 -11 20 -25 7 -28 34 -34 33 -7 0 9 -8 62 -17 117
-13 79 -21 101 -35 103 -9 2 -19 -2 -22 -10z m27 -141 c-9 -19 -18 6 -13 40
l5 38 6 -35 c3 -19 4 -38 2 -43z"/>
<path d="M2277 2314 c-4 -4 -7 -58 -7 -121 0 -92 3 -113 15 -113 11 0 15 17
17 73 l3 72 13 -72 c8 -40 17 -73 21 -73 4 0 12 30 18 68 l10 67 1 -67 c2 -53
5 -68 17 -68 13 0 15 20 15 120 0 112 -1 120 -20 120 -14 0 -21 -9 -25 -37
-13 -76 -18 -80 -29 -23 -10 52 -30 73 -49 54z"/>
<path d="M2616 2298 c-11 -15 -16 -45 -16 -95 0 -91 11 -123 44 -123 28 0 42
14 51 53 6 23 4 27 -14 27 -16 0 -21 -6 -21 -25 0 -14 -4 -25 -10 -25 -6 0
-10 35 -10 85 0 50 4 85 10 85 6 0 10 -9 10 -20 0 -14 7 -20 21 -20 18 0 20 4
14 27 -14 56 -51 71 -79 31z"/>
<path d="M2787 2314 c-4 -4 -7 -58 -7 -121 0 -107 1 -113 20 -113 20 0 21 5
18 117 -3 108 -11 137 -31 117z"/>
<path d="M2910 2201 c0 -101 2 -121 15 -121 11 0 15 12 15 45 0 39 4 47 24 54
27 11 36 29 36 76 0 38 -14 52 -58 61 l-32 7 0 -122z m55 44 c0 -16 -6 -30
-12 -32 -9 -3 -13 7 -13 32 0 25 4 35 13 33 6 -3 12 -17 12 -33z"/>
<path d="M3090 2200 c0 -100 3 -120 15 -120 11 0 15 12 15 50 0 38 4 50 15 50
11 0 15 -12 15 -50 0 -38 4 -50 15 -50 13 0 15 20 15 120 0 100 -2 120 -15
120 -11 0 -15 -12 -15 -50 0 -38 -4 -50 -15 -50 -11 0 -15 12 -15 50 0 38 -4
50 -15 50 -12 0 -15 -20 -15 -120z"/>
<path d="M3270 2200 l0 -120 40 0 c33 0 40 3 40 20 0 13 -7 20 -20 20 -16 0
-20 7 -20 30 0 20 5 30 15 30 8 0 15 9 15 20 0 11 -7 20 -15 20 -10 0 -15 10
-15 30 0 23 4 30 20 30 13 0 20 7 20 20 0 17 -7 20 -40 20 l-40 0 0 -120z"/>
<path d="M3440 2201 c0 -101 2 -121 15 -121 11 0 15 12 15 52 0 60 7 59 18 -3
5 -31 13 -45 26 -47 16 -3 17 1 10 40 -8 46 -8 63 1 118 8 44 -9 68 -52 76
l-33 7 0 -122z m54 63 c5 -14 -9 -54 -19 -54 -3 0 -5 16 -5 35 0 36 13 47 24
19z"/>
</g>
</svg>
